{"title":"El Rey Leon [Walt Disney - Los Clasicos] [DVDRip] [720p + H263 +","uid":5578366,"size":3031641355,"categoryP":"video","categoryS":"hd___movies","magnet":"?xt=urn:btih:74b2df23b945c66de7265f7cd426e2dde1fac331&amp;dn=El+Rey+Leon+%5BWalt+Disney+-+Los+Clasicos%5D+%5BDVDRip%5D+%5B720p+%2B+H263+%2B&amp;tr=udp%3A%2F%2Ftracker.openbittorrent.com%3A80&amp;tr=udp%3A%2F%2Fopen.demonii.com%3A1337&amp;tr=udp%3A%2F%2Ftracker.coppersurfer.tk%3A6969&amp;tr=udp%3A%2F%2Fexodus.desync.com%3A6969","seeders":0,"leechers":7,"uploader":"fleqii","files":1,"time":1274450563,"description":"I:TorrentsLion_King-Title27.mkv\n   General\n      Complete name : I:TorrentsLion_King-Title27.mkv\n      Format : Matroska\n      File size : 2.82 GiB\n      Duration : 1h 25mn\n      Overall bit rate : 4 742 Kbps\n      Writing application : Lavf52.13.0\n      Writing library : Lavf52.13.0\n   Video #1\n      ID : 1\n      Format : MPEG-4 Visual\n      Format profile : Simple@L1\n      Format settings, BVOP : No\n      Format settings, QPel : No\n      Format settings, GMC : No warppoints\n      Format settings, Matrix : Default (H.263)\n      Codec ID : V_MPEG4/ISO/ASP\n      Codec ID/Info : Advanced Simple Profile\n      Duration : 1h 25mn\n      Bit rate : 4 327 Kbps\n      Width : 1 280 pixels\n      Height : 720 pixels\n      Display aspect ratio : 16:9\n      Frame rate mode : Constant\n      Frame rate : 29.970 fps\n      Resolution : 24 bits\n      Colorimetry : 4:2:0\n      Scan type : Progressive\n      Bits/(Pixel*Frame) : 0.157\n      Stream size : 2.57 GiB (91%)\n      Writing library : Lavc51.54.0\n   Audio #2\n      ID : 2\n      Format : AC-3\n      Format/Info : Audio Coding 3\n      Codec ID : A_AC3\n      Duration : 1h 25mn\n      Bit rate mode : Constant\n      Bit rate : 320 Kbps\n      Channel(s) : 6 channels\n      Channel positions : Front: L C R, Surround: L R, LFE\n      Sampling rate : 48.0 KHz\n      Resolution : 16 bits\n      Stream size : 195 MiB (7%)","torrent":{"xt":"urn:btih:74b2df23b945c66de7265f7cd426e2dde1fac331","amp;dn":"El+Rey+Leon+%5BWalt+Disney+-+Los+Clasicos%5D+%5BDVDRip%5D+%5B720p+%2B+H263+%2B","amp;tr":["udp%3A%2F%2Ftracker.openbittorrent.com%3A80","udp%3A%2F%2Fopen.demonii.com%3A1337","udp%3A%2F%2Ftracker.coppersurfer.tk%3A6969","udp%3A%2F%2Fexodus.desync.com%3A6969"],"infoHash":"74b2df23b945c66de7265f7cd426e2dde1fac331","infoHashBuffer":{"type":"Buffer","data":[116,178,223,35,185,69,198,109,231,38,95,124,212,38,226,221,225,250,195,49]},"announce":[],"urlList":[]}}